<?xml version="1.0" encoding="UTF-8" ?>
<!DOCTYPE svg PUBLIC "-//W3C//DTD SVG 1.1//EN" "http://www.w3.org/Graphics/SVG/1.1/DTD/svg11.dtd">
<svg width="2309pt" height="671pt" viewBox="0 0 2309 671" version="1.1" xmlns="http://www.w3.org/2000/svg">
<g id="#000000ff">
<path fill="#000000" opacity="1.00" d=" M 208.98 37.04 C 237.98 20.49 278.06 25.23 301.04 49.95 C 325.71 74.19 329.54 115.94 310.70 144.73 C 309.38 146.64 308.06 148.55 306.89 150.55 C 363.94 183.24 420.65 216.51 477.82 248.98 C 477.82 338.13 478.04 427.29 477.71 516.43 C 400.54 560.43 323.79 605.19 246.80 649.52 C 169.74 605.12 92.82 560.46 15.66 516.22 C 15.75 427.16 15.56 338.11 15.75 249.06 C 72.92 216.40 129.81 183.25 186.86 150.39 C 165.85 123.90 165.66 83.19 186.56 56.59 C 192.88 48.91 200.25 41.91 208.98 37.04 M 215.93 52.98 C 200.68 62.44 191.48 80.17 191.16 97.96 C 190.88 107.78 192.74 118.04 198.06 126.42 C 198.66 122.65 198.83 118.82 199.68 115.09 C 203.66 95.67 216.01 78.33 232.50 67.47 C 246.15 58.13 262.93 53.82 279.41 54.76 C 276.07 51.82 271.88 50.07 267.82 48.38 C 251.12 41.76 230.95 42.60 215.93 52.98 M 37.12 258.21 C 36.21 258.77 35.11 258.27 34.13 258.30 C 34.42 281.86 33.99 305.43 34.01 328.99 C 33.40 369.00 33.86 409.04 33.70 449.06 C 34.40 468.13 33.92 487.22 34.72 506.29 C 104.69 546.12 174.22 586.73 243.98 626.92 C 245.08 627.43 246.43 628.54 247.65 627.63 C 318.77 587.97 388.27 545.44 459.74 506.41 C 460.07 481.27 459.36 456.14 459.50 431.00 C 459.49 399.99 459.49 368.97 459.49 337.96 C 459.38 311.80 459.94 285.65 459.84 259.49 C 455.25 258.05 451.48 254.91 447.25 252.72 C 395.95 222.68 344.31 193.20 292.80 163.51 C 286.26 167.51 279.54 171.23 272.69 174.67 C 272.69 188.64 272.79 202.62 272.64 216.59 C 288.32 220.85 305.01 226.40 315.70 239.38 C 320.75 245.70 324.49 253.71 323.08 261.99 C 321.12 273.56 312.30 282.65 302.64 288.59 C 270.86 306.17 230.84 307.09 197.87 292.19 C 189.08 288.42 181.01 282.50 175.64 274.50 C 171.07 268.02 168.81 259.61 170.97 251.83 C 173.72 242.46 180.74 234.98 188.70 229.65 C 198.46 223.27 209.68 219.65 220.84 216.62 C 220.69 202.58 220.89 188.53 220.74 174.49 C 213.95 171.10 207.23 167.56 200.82 163.51 C 146.20 194.98 91.40 226.16 37.12 258.21 M 204.26 253.09 C 202.67 258.47 204.72 264.44 208.96 268.02 C 221.59 279.21 239.49 282.94 255.93 280.71 C 266.93 279.11 277.72 274.55 285.76 266.76 C 290.75 261.80 290.84 253.60 287.13 247.87 C 283.75 242.72 278.94 238.24 273.12 236.02 C 276.25 244.53 275.36 254.99 268.52 261.47 C 255.57 273.73 232.45 272.59 220.74 259.11 C 220.58 251.39 220.93 243.65 220.32 235.94 C 212.86 238.94 206.54 245.29 204.26 253.09 Z" />
<path fill="#000000" opacity="1.00" d=" M 577.48 266.02 C 619.33 265.91 661.17 265.97 703.02 266.00 C 719.32 265.87 734.01 280.68 733.76 296.98 C 733.79 318.00 733.79 339.01 733.76 360.03 C 733.89 370.03 728.77 379.87 720.50 385.49 C 715.30 389.24 708.90 390.93 702.55 391.11 C 712.08 410.05 721.54 429.04 731.04 448.01 C 732.23 450.56 734.10 453.03 733.80 456.01 C 733.76 476.00 733.78 495.99 733.79 515.99 C 723.35 515.98 712.91 516.05 702.47 515.95 C 702.53 497.98 702.48 480.01 702.50 462.04 C 702.25 458.56 703.25 454.78 701.54 451.57 C 691.38 431.40 681.36 411.15 671.20 390.98 C 650.39 391.03 629.59 390.98 608.78 391.01 C 608.78 432.67 608.78 474.33 608.78 515.99 C 598.35 515.99 587.91 516.04 577.48 515.96 C 577.52 432.65 577.51 349.34 577.48 266.02 M 608.79 297.25 C 608.77 318.07 608.77 338.90 608.79 359.72 C 640.02 359.73 671.24 359.69 702.47 359.74 C 702.53 338.90 702.50 318.07 702.48 297.24 C 671.25 297.26 640.02 297.25 608.79 297.25 Z" />
<path fill="#000000" opacity="1.00" d=" M 1015.01 265.97 C 1025.43 265.97 1035.85 265.96 1046.28 265.98 C 1046.29 297.22 1046.27 328.47 1046.29 359.71 C 1067.12 359.74 1087.95 359.69 1108.79 359.74 C 1108.77 370.16 1108.78 380.57 1108.78 390.99 C 1087.95 391.02 1067.11 390.98 1046.28 391.01 C 1046.29 432.67 1046.28 474.33 1046.28 515.99 C 1035.85 516.00 1025.43 516.00 1015.00 516.00 C 1014.99 474.33 1015.00 432.67 1015.00 391.00 C 994.15 390.96 973.31 391.07 952.47 390.95 C 952.54 380.54 952.45 370.13 952.52 359.72 C 973.34 359.72 994.17 359.71 1014.99 359.72 C 1015.01 328.47 1014.99 297.22 1015.01 265.97 Z" />
<path fill="#000000" opacity="1.00" d=" M 1515.01 265.97 C 1556.68 265.97 1598.35 265.95 1640.02 265.98 C 1656.51 265.59 1671.53 280.51 1671.26 297.01 C 1671.31 359.35 1671.27 421.69 1671.28 484.02 C 1671.39 490.62 1669.65 497.32 1665.78 502.73 C 1660.07 511.04 1650.13 516.21 1640.04 516.00 C 1598.36 516.00 1556.68 516.00 1515.00 516.00 C 1515.00 432.66 1514.99 349.31 1515.01 265.97 M 1546.29 297.25 C 1546.28 318.07 1546.28 338.89 1546.28 359.71 C 1577.52 359.73 1608.75 359.71 1639.99 359.72 C 1640.00 338.90 1640.00 318.07 1639.99 297.25 C 1608.76 297.26 1577.52 297.24 1546.29 297.25 M 1546.27 391.02 C 1546.30 422.26 1546.27 453.50 1546.29 484.75 C 1577.52 484.76 1608.75 484.74 1639.99 484.75 C 1640.01 453.50 1639.99 422.25 1640.00 391.00 C 1608.75 391.01 1577.51 390.97 1546.27 391.02 Z" />
<path fill="#000000" opacity="1.00" d=" M 104.11 358.01 C 107.01 356.52 109.93 355.04 112.85 353.59 C 128.16 362.40 143.53 371.13 158.76 380.08 C 158.36 393.73 159.52 407.38 158.78 421.03 C 158.61 425.12 158.75 429.20 158.69 433.29 C 173.98 442.54 189.54 451.32 205.08 460.15 C 205.16 477.78 205.03 495.42 205.18 513.05 C 202.16 514.98 199.20 517.02 196.08 518.80 C 183.81 511.68 171.63 504.35 159.09 497.73 C 159.11 512.00 158.67 526.25 158.71 540.52 C 155.69 542.06 152.68 543.64 149.79 545.40 C 134.25 536.67 118.89 527.62 103.40 518.80 C 104.51 500.89 103.65 482.90 103.26 464.97 C 87.62 456.41 72.22 447.41 56.98 438.13 C 56.91 420.68 57.84 403.21 56.99 385.78 C 60.03 383.69 63.24 381.86 66.49 380.12 C 78.74 387.24 90.87 394.60 103.36 401.28 C 103.44 386.85 103.75 372.43 104.11 358.01 M 114.36 402.30 C 122.11 407.28 130.25 411.67 138.31 416.14 C 134.60 404.60 130.63 393.13 126.56 381.71 C 121.90 388.19 118.49 395.48 114.36 402.30 M 65.19 416.82 C 73.12 426.42 81.63 435.53 89.36 445.31 C 89.48 435.83 89.22 426.34 89.43 416.85 C 81.35 416.82 73.27 416.69 65.19 416.82 M 163.36 487.64 C 171.45 487.64 179.55 487.69 187.64 487.69 C 180.06 478.01 171.78 468.87 163.52 459.77 C 163.13 469.05 163.43 478.35 163.36 487.64 M 114.57 488.42 C 118.48 499.87 121.97 511.49 126.50 522.70 C 130.63 515.83 134.60 508.86 138.53 501.87 C 130.56 497.35 122.84 492.36 114.57 488.42 Z" />
<path fill="#000000" opacity="1.00" d=" M 765.01 359.72 C 817.10 359.72 869.18 359.71 921.28 359.72 C 921.29 390.99 921.27 422.25 921.28 453.51 C 879.64 453.53 837.99 453.56 796.35 453.50 C 796.20 463.91 796.32 474.33 796.29 484.75 C 837.95 484.76 879.61 484.74 921.28 484.76 C 921.29 495.17 921.28 505.58 921.28 515.99 C 879.52 516.00 837.76 516.00 796.00 516.00 C 789.47 516.03 782.91 514.14 777.57 510.34 C 769.42 504.74 764.88 494.77 765.00 484.99 C 765.00 443.23 764.99 401.48 765.01 359.72 M 796.28 391.01 C 796.28 401.41 796.28 411.81 796.28 422.21 C 827.52 422.23 858.76 422.22 889.99 422.22 C 890.00 411.81 890.00 401.41 890.00 391.00 C 858.76 391.00 827.52 390.99 796.28 391.01 Z" />
<path fill="#000000" opacity="1.00" d=" M 1153.20 365.28 C 1158.61 361.36 1165.35 359.60 1172.00 359.72 C 1213.42 359.72 1254.85 359.71 1296.28 359.72 C 1296.29 370.15 1296.28 380.57 1296.28 390.99 C 1254.61 391.02 1212.94 390.98 1171.28 391.01 C 1171.29 432.67 1171.28 474.33 1171.28 515.99 C 1160.85 516.01 1150.43 516.00 1140.00 516.00 C 1140.00 474.33 1140.00 432.67 1140.00 391.01 C 1139.78 380.93 1144.91 370.99 1153.20 365.28 Z" />
<path fill="#000000" opacity="1.00" d=" M 1352.30 360.33 C 1361.14 359.10 1370.12 359.98 1379.03 359.72 C 1403.67 359.73 1428.32 359.68 1452.97 359.74 C 1469.00 359.61 1483.57 373.92 1483.74 389.95 C 1483.84 418.97 1483.75 447.99 1483.78 477.01 C 1483.75 483.31 1484.21 489.84 1481.88 495.84 C 1478.40 505.43 1469.85 512.97 1459.90 515.20 C 1455.70 516.23 1451.34 515.98 1447.07 516.00 C 1417.70 516.00 1388.33 515.99 1358.96 516.01 C 1352.19 516.10 1345.36 514.19 1339.86 510.19 C 1331.84 504.58 1327.40 494.71 1327.50 485.03 C 1327.50 456.03 1327.50 427.02 1327.50 398.02 C 1327.50 392.34 1327.12 386.49 1329.00 381.03 C 1332.33 370.63 1341.53 362.32 1352.30 360.33 M 1358.78 391.01 C 1358.79 422.25 1358.75 453.50 1358.80 484.75 C 1390.04 484.71 1421.29 484.82 1452.53 484.69 C 1452.45 453.46 1452.52 422.23 1452.50 391.00 C 1421.26 391.00 1390.02 391.00 1358.78 391.01 Z" />
<path fill="#000000" opacity="1.00" d=" M 1727.31 360.33 C 1736.13 359.11 1745.09 359.98 1753.98 359.72 C 1778.63 359.73 1803.28 359.68 1827.93 359.74 C 1844.00 359.59 1858.60 373.93 1858.74 389.99 C 1858.84 419.98 1858.74 449.97 1858.79 479.96 C 1858.90 485.81 1858.75 491.86 1856.31 497.29 C 1851.66 508.37 1840.10 516.12 1828.06 515.99 C 1800.06 516.01 1772.07 515.99 1744.07 516.00 C 1736.45 515.87 1728.49 516.79 1721.30 513.72 C 1712.35 510.31 1705.55 502.22 1703.41 492.93 C 1701.99 487.04 1702.63 480.96 1702.50 474.97 C 1702.49 446.98 1702.50 418.98 1702.49 390.98 C 1702.04 376.55 1713.09 362.86 1727.31 360.33 M 1733.78 391.01 C 1733.78 422.25 1733.76 453.50 1733.79 484.75 C 1765.00 484.78 1796.20 484.67 1827.40 484.81 C 1827.63 453.54 1827.44 422.27 1827.49 391.00 C 1796.26 391.00 1765.02 391.00 1733.78 391.01 Z" />
<path fill="#000000" opacity="1.00" d=" M 1890.00 359.85 C 1900.40 360.14 1910.80 359.77 1921.20 359.71 C 1936.89 375.28 1952.47 390.95 1968.11 406.58 C 1983.76 390.97 1999.35 375.31 2015.01 359.71 C 2025.43 359.73 2035.85 359.70 2046.28 359.73 C 2046.28 370.15 2046.28 380.57 2046.28 390.99 C 2035.86 391.01 2025.45 391.00 2015.04 391.00 C 2004.61 401.35 1994.29 411.81 1983.83 422.13 C 1983.77 432.48 1983.69 442.85 1983.85 453.20 C 1993.88 464.05 2004.71 474.23 2015.11 484.77 C 2025.49 484.73 2035.88 484.75 2046.28 484.76 C 2046.28 495.17 2046.28 505.58 2046.28 516.00 C 2035.84 516.00 2025.41 516.00 2014.99 516.00 C 1999.36 500.40 1983.76 484.77 1968.14 469.16 C 1953.97 483.32 1939.81 497.48 1925.65 511.65 C 1924.12 513.08 1922.84 514.83 1921.05 515.91 C 1910.70 516.13 1900.34 515.93 1890.00 516.00 C 1890.00 505.58 1889.99 495.17 1890.01 484.75 C 1900.34 484.67 1910.68 484.88 1921.02 484.66 C 1931.79 474.53 1942.10 463.81 1952.56 453.32 C 1952.40 442.95 1952.56 432.58 1952.47 422.20 C 1941.91 411.92 1931.78 401.14 1921.03 391.09 C 1910.69 390.86 1900.34 391.07 1890.00 391.00 C 1889.99 380.61 1890.00 370.23 1890.00 359.85 Z" />
<path fill="#000000" opacity="1.00" d=" M 377.39 375.50 C 389.21 373.80 401.69 380.00 407.53 390.40 C 410.12 394.77 410.88 399.90 411.58 404.86 C 416.41 442.01 398.96 480.73 368.94 502.83 C 359.99 509.40 349.85 514.34 339.15 517.29 C 331.87 519.40 323.76 517.68 317.64 513.33 C 310.40 508.36 305.69 500.32 303.46 491.94 C 301.75 485.77 302.23 479.30 302.90 473.01 C 305.23 449.76 314.38 427.24 328.81 408.88 C 339.87 394.90 354.39 383.45 371.16 377.16 C 373.18 376.42 375.26 375.82 377.39 375.50 M 361.42 399.44 C 347.30 406.30 336.89 418.95 329.26 432.37 C 321.85 445.88 316.71 461.52 318.91 477.07 C 320.16 486.76 326.05 496.02 335.06 500.17 C 325.31 473.50 334.27 442.64 353.39 422.43 C 363.92 411.18 378.32 403.28 393.81 401.92 C 384.58 395.00 371.64 394.38 361.42 399.44 Z" />
</g>
</svg>
